<svg version="1.1" id="Layer_1" xmlns="http://www.w3.org/2000/svg" xmlns:xlink="http://www.w3.org/1999/xlink" x="0px" y="0px"
	 width="100%" viewBox="0 0 1282 1097" enable-background="new 0 0 1282 1097" xml:space="preserve">
<path fill="#FFFFFF" opacity="1.000000" stroke="none" 
	d="
M1283.000000,405.000000 
	C1283.000000,636.333313 1283.000000,867.166687 1283.000000,1098.000000 
	C855.666687,1098.000000 428.333344,1098.000000 1.000000,1098.000000 
	C1.000000,732.333313 1.000000,366.666656 1.000000,1.000000 
	C428.333344,1.000000 855.666687,1.000000 1283.000000,1.000000 
	C1283.000000,135.500000 1283.000000,270.000000 1283.000000,405.000000 
M520.988647,852.016968 
	C520.988647,852.016968 520.969299,851.964050 521.131897,852.626160 
	C532.444641,863.994263 543.785767,875.334534 555.035156,886.765015 
	C556.484497,888.237549 557.458252,890.178162 558.100342,892.384766 
	C557.058350,893.677490 556.069641,895.017761 554.966309,896.255798 
	C537.654358,915.681030 527.775757,938.446716 525.351135,964.245667 
	C519.480835,1026.708130 563.478943,1082.679321 625.733154,1092.343628 
	C675.465210,1100.063965 725.732910,1074.683350 748.646667,1030.283081 
	C772.556946,983.951721 764.249146,928.488892 728.283386,891.257690 
	C737.526306,881.831360 746.794556,872.429688 756.000183,862.967102 
	C759.781006,859.080811 763.426941,855.063477 767.066040,851.028931 
	C767.066040,851.028931 767.073120,851.131531 767.425232,851.088257 
	C767.656250,850.993530 767.807007,850.826538 768.447937,850.136963 
	C777.651978,840.915955 786.855957,831.694946 797.033630,821.498535 
	C791.612915,816.904114 786.585693,812.643250 781.135193,808.023621 
	C786.626831,802.334595 791.190613,797.606812 796.288330,793.106995 
	C801.220825,797.703979 806.153320,802.300964 810.675110,806.515137 
	C822.660767,794.927063 834.437012,783.541443 846.884705,772.001770 
	C847.690125,771.532043 848.495605,771.062256 850.121216,770.711426 
	C858.731323,770.924316 867.021118,769.384155 874.984009,766.115601 
	C887.865479,760.828003 897.912170,752.204102 905.173157,740.335205 
	C911.982483,729.204651 914.604797,717.009460 914.919922,703.669128 
	C969.147888,649.477966 1023.377563,595.288513 1077.585815,541.077576 
	C1078.241455,540.421875 1078.622681,539.491699 1079.828369,538.461975 
	C1082.115234,536.322998 1084.465576,534.247559 1086.679565,532.035400 
	C1120.540405,498.201935 1154.385864,464.353027 1188.219849,430.492706 
	C1189.259033,429.452667 1190.137329,428.251587 1191.736084,426.923767 
	C1200.987061,417.554901 1210.238159,408.186066 1220.029663,398.540894 
	C1237.608765,381.013153 1255.137817,363.434601 1272.823608,346.015167 
	C1275.334595,343.542084 1274.935425,341.810120 1273.258179,339.205841 
	C1263.426025,323.938110 1253.748901,308.570465 1243.998413,293.250000 
	C1243.196655,291.990295 1242.366577,290.705048 1241.332153,289.643555 
	C1221.460571,269.251465 1202.114746,248.307037 1181.543579,228.645035 
	C1137.871826,186.903488 1089.207153,151.766220 1036.815552,121.698044 
	C1003.517822,102.588028 969.083374,85.893936 933.362854,71.888748 
	C872.606567,48.067585 809.921448,31.767082 745.127136,23.460001 
	C684.373474,15.670964 623.609436,14.707021 562.682068,21.036505 
	C524.168823,25.037485 486.141357,31.656305 448.638824,41.218540 
	C409.191650,51.276604 370.712646,64.269875 333.244812,80.207756 
	C279.677673,102.993889 229.142365,131.360764 182.006790,165.385544 
	C138.438171,196.835556 97.943657,232.009109 62.009102,272.172882 
	C55.794067,279.119354 48.685646,285.435242 43.434792,293.040100 
	C32.935024,308.246979 23.514259,324.195587 13.449959,339.709473 
	C11.671847,342.450409 12.163980,343.941193 14.285781,346.022156 
	C24.039680,355.588226 33.623878,365.326996 43.321789,374.950531 
	C51.355076,382.922211 59.462074,390.819611 67.890747,399.408264 
	C76.948929,408.321777 86.007111,417.235260 95.215942,426.772491 
	C120.399063,451.989319 145.562424,477.225891 170.773911,502.414307 
	C182.771286,514.400696 194.860107,526.295654 207.167297,538.835388 
	C257.231781,588.889038 307.291412,638.947571 357.368225,688.988892 
	C362.430664,694.047791 367.596771,699.003052 372.884277,704.756836 
	C372.850830,707.409729 372.565002,710.087402 372.822235,712.711853 
	C376.086975,746.020142 403.561249,771.862549 438.333282,770.949524 
	C439.161682,771.330872 439.990082,771.712219 441.115936,772.700073 
	C452.607788,784.149231 464.099670,795.598450 475.627625,807.083557 
	C481.079651,802.157715 486.205231,797.526855 491.733276,793.510254 
	C496.299408,797.844360 500.865540,802.178467 506.848022,807.856934 
	C500.707458,812.760925 495.415100,816.987610 490.788727,820.682373 
	C501.209991,831.589233 510.515961,841.328918 520.069153,851.571228 
	C520.394226,851.722595 520.719238,851.873962 520.988647,852.016968 
z"/>
<path fill="#2DF32C" opacity="1.000000" stroke="none" 
	d="
M1079.131958,538.689697 
	C1078.622681,539.491699 1078.241455,540.421875 1077.585815,541.077576 
	C1023.377563,595.288513 969.147888,649.477966 914.463074,703.383118 
	C912.351929,684.824707 904.527405,669.814941 890.121582,658.388916 
	C878.976501,649.549255 866.239319,645.042480 851.838135,644.748413 
	C851.141663,644.713257 850.586060,644.882324 849.577515,645.048828 
	C844.515381,645.590942 839.906250,646.135620 835.191223,646.362915 
	C822.932922,632.445007 810.276978,619.378052 795.462158,608.267395 
	C798.608704,594.178833 797.301392,580.771545 791.574890,568.006226 
	C785.462769,554.381226 775.555176,544.120972 762.137817,537.363403 
	C750.337280,531.420105 737.731384,529.463623 724.859192,531.443237 
	C705.887756,534.360840 691.230591,544.559875 679.939819,560.093323 
	C671.960144,559.113159 664.390564,558.031006 656.782837,557.548218 
	C639.988708,556.482300 623.236450,556.821411 606.363525,560.127808 
	C599.539917,549.584534 590.517395,541.996948 579.527832,536.737610 
	C567.768127,531.109680 555.275635,529.524597 542.546265,531.699524 
	C527.257874,534.311462 514.495544,541.764954 504.441406,553.694946 
	C496.514984,563.100281 491.893829,574.218872 490.243042,586.092957 
	C489.225159,593.414612 491.074524,601.134949 491.316467,608.779785 
	C489.204010,610.355103 487.290955,611.703430 485.638885,613.318665 
	C474.298706,624.406006 463.013214,635.549316 451.351196,646.640503 
	C440.279816,644.100464 429.601044,644.194275 418.998901,647.176086 
	C405.295898,651.029907 394.127106,658.645325 385.529572,670.004700 
	C377.907806,680.074890 374.033142,691.559448 372.714783,704.006409 
	C367.596771,699.003052 362.430664,694.047791 357.368225,688.988892 
	C307.291412,638.947571 257.231781,588.889038 207.315109,538.320312 
	C208.506012,536.536560 209.701447,535.363403 210.567352,533.983521 
	C216.122772,525.130859 221.078995,515.847351 227.231812,507.436798 
	C237.395416,493.543762 248.209793,480.119110 259.001923,466.699707 
	C261.325958,463.809937 264.720886,461.781403 267.984924,459.399719 
	C269.417847,459.901978 270.507233,460.321381 271.556091,460.825134 
	C312.898254,480.681641 356.128265,494.788116 401.168427,503.375671 
	C402.873718,503.700836 404.614105,503.842041 406.292542,504.062958 
	C406.632111,503.014771 406.889069,502.556458 406.918060,502.084106 
	C409.005219,468.092682 408.032227,434.188721 403.414764,400.444885 
	C401.432312,385.957611 398.718109,371.570465 396.665833,357.041443 
	C406.751251,351.936127 416.329651,346.537872 426.296661,341.991699 
	C455.623077,328.615021 485.805725,317.492126 517.153687,309.869232 
	C531.767578,306.315552 546.634277,303.801178 561.653931,301.019531 
	C562.861877,302.984955 563.846924,304.724487 564.736206,306.511627 
	C584.803223,346.840729 609.815430,383.847107 639.389160,417.802307 
	C640.659668,419.260986 641.465759,421.124084 642.570618,422.933746 
	C644.700623,420.899719 645.464417,420.271759 646.109802,419.539520 
	C668.970764,393.600342 689.256226,365.790588 706.473816,335.795929 
	C713.092957,324.264984 719.284180,312.488403 726.129944,300.866211 
	C728.571411,301.060577 730.611267,300.961273 732.526001,301.403839 
	C748.968872,305.204285 765.512085,308.649933 781.789856,313.068939 
	C812.921204,321.520264 842.945496,333.026672 871.828064,347.448242 
	C877.755127,350.407745 883.704651,353.322571 889.699341,356.687622 
	C889.468933,358.925964 889.251343,360.748627 888.886902,362.541443 
	C879.815552,407.164368 876.604675,452.205475 879.228882,497.662750 
	C879.338745,499.566437 879.597473,501.461517 879.810547,503.598602 
	C881.234619,503.436401 882.041748,503.394928 882.828918,503.247467 
	C915.817261,497.067932 947.971069,487.933624 979.128601,475.466797 
	C992.858521,469.973145 1006.320984,463.811340 1020.062134,458.253021 
	C1043.197998,482.809113 1062.792725,509.552765 1079.131958,538.689697 
z"/>
<path fill="#0101FE" opacity="1.000000" stroke="none" 
	d="
M67.536423,398.749908 
	C59.462074,390.819611 51.355076,382.922211 43.321789,374.950531 
	C33.623878,365.326996 24.039680,355.588226 14.285781,346.022156 
	C12.163980,343.941193 11.671847,342.450409 13.449959,339.709473 
	C23.514259,324.195587 32.935024,308.246979 43.434792,293.040100 
	C48.685646,285.435242 55.794067,279.119354 62.009102,272.172882 
	C97.943657,232.009109 138.438171,196.835556 182.006790,165.385544 
	C229.142365,131.360764 279.677673,102.993889 333.244812,80.207756 
	C370.712646,64.269875 409.191650,51.276604 448.638824,41.218540 
	C486.141357,31.656305 524.168823,25.037485 562.682068,21.036505 
	C623.609436,14.707021 684.373474,15.670964 745.127136,23.460001 
	C809.921448,31.767082 872.606567,48.067585 933.362854,71.888748 
	C969.083374,85.893936 1003.517822,102.588028 1036.815552,121.698044 
	C1089.207153,151.766220 1137.871826,186.903488 1181.543579,228.645035 
	C1202.114746,248.307037 1221.460571,269.251465 1241.332153,289.643555 
	C1242.366577,290.705048 1243.196655,291.990295 1243.998413,293.250000 
	C1253.748901,308.570465 1263.426025,323.938110 1273.258179,339.205841 
	C1274.935425,341.810120 1275.334595,343.542084 1272.823608,346.015167 
	C1255.137817,363.434601 1237.608765,381.013153 1219.594971,398.364929 
	C1210.955811,385.046448 1202.793823,371.877075 1194.520264,358.778198 
	C1192.126099,354.987854 1189.747925,351.101471 1186.789551,347.767426 
	C1166.663086,325.085510 1146.647583,302.216980 1123.491577,282.548248 
	C1101.554321,263.914734 1079.558960,245.212448 1056.333008,228.261719 
	C1008.892456,193.638824 957.368164,166.219589 902.609314,144.832260 
	C871.047485,132.505035 838.801086,122.463913 805.886719,114.624748 
	C771.330688,106.394562 736.258423,100.762428 700.864136,98.112816 
	C656.792603,94.813637 612.696716,95.117348 568.640503,99.889549 
	C536.781555,103.340538 505.224396,108.549332 474.210815,116.259392 
	C429.210358,127.446617 385.529510,142.647217 343.424896,162.373627 
	C315.606262,175.406952 288.616150,189.902878 262.771515,206.374237 
	C210.847183,239.466690 163.678467,278.377441 121.869850,323.727295 
	C106.473404,340.427826 91.759285,357.514618 80.703369,377.516479 
	C76.679565,384.796112 71.946106,391.683533 67.536423,398.749908 
z"/>
<path fill="#117A13" opacity="1.000000" stroke="none" 
	d="
M67.713585,399.079102 
	C71.946106,391.683533 76.679565,384.796112 80.703369,377.516479 
	C91.759285,357.514618 106.473404,340.427826 121.869850,323.727295 
	C163.678467,278.377441 210.847183,239.466690 262.771515,206.374237 
	C288.616150,189.902878 315.606262,175.406952 343.424896,162.373627 
	C385.529510,142.647217 429.210358,127.446617 474.210815,116.259392 
	C505.224396,108.549332 536.781555,103.340538 568.640503,99.889549 
	C612.696716,95.117348 656.792603,94.813637 700.864136,98.112816 
	C736.258423,100.762428 771.330688,106.394562 805.886719,114.624748 
	C838.801086,122.463913 871.047485,132.505035 902.609314,144.832260 
	C957.368164,166.219589 1008.892456,193.638824 1056.333008,228.261719 
	C1079.558960,245.212448 1101.554321,263.914734 1123.491577,282.548248 
	C1146.647583,302.216980 1166.663086,325.085510 1186.789551,347.767426 
	C1189.747925,351.101471 1192.126099,354.987854 1194.520264,358.778198 
	C1202.793823,371.877075 1210.955811,385.046448 1219.324707,398.503113 
	C1210.238159,408.186066 1200.987061,417.554901 1191.350342,426.668945 
	C1187.760620,421.183167 1184.573486,415.941803 1181.349365,410.723389 
	C1174.979248,400.413025 1169.577271,389.309265 1161.983154,379.994202 
	C1149.415283,364.578064 1135.586304,350.171234 1121.973022,335.634644 
	C1115.507935,328.731049 1108.349731,322.471832 1101.413452,316.019531 
	C1100.407837,315.083954 1098.886353,314.702606 1097.315674,313.944092 
	C1080.370483,296.971741 1062.664062,281.327423 1043.207397,267.767456 
	C1033.254395,260.830963 1023.022644,254.294434 1012.823730,247.224731 
	C1011.679932,246.362442 1010.629395,245.852554 1009.532104,245.402954 
	C1009.485352,245.463272 1009.338806,245.505661 1009.417603,245.167358 
	C1003.724182,241.051590 998.033264,237.142715 992.166382,233.518707 
	C961.846741,214.789795 930.087585,198.894348 897.070190,185.503983 
	C862.879028,171.637634 827.893616,160.256699 791.805237,152.470978 
	C777.251282,149.331070 762.620056,146.488968 747.938538,144.019409 
	C736.048157,142.019318 724.035095,140.737045 712.060791,139.263733 
	C710.737549,139.100922 709.311340,139.774689 707.542114,140.126297 
	C706.122009,139.988251 705.092712,139.784378 703.956055,139.278336 
	C702.552551,138.974594 701.256592,138.973022 699.538330,139.040161 
	C676.448730,137.875565 653.790344,135.953674 631.110779,135.658829 
	C616.758545,135.472229 602.374695,137.711716 587.758789,138.623901 
	C585.987427,138.789719 584.462341,139.194702 582.600342,139.759476 
	C581.528809,139.922974 580.794312,139.926697 579.771240,139.658508 
	C578.503174,139.268448 577.499329,138.948090 576.547852,139.062561 
	C562.755188,140.721924 548.864380,141.845352 535.202820,144.260757 
	C501.560120,150.208908 468.333282,158.066864 435.813080,168.618362 
	C401.931732,179.611496 369.100128,193.288361 337.393066,209.470749 
	C320.690399,217.995300 304.581940,227.707016 288.396515,237.208633 
	C283.369873,240.159515 278.971466,244.180557 274.109741,247.971161 
	C255.798172,261.035522 237.305786,273.372498 219.658676,286.818817 
	C208.894196,295.020844 199.430832,304.930481 189.014618,314.065735 
	C178.168854,323.909363 167.570450,333.636078 157.270218,343.668945 
	C152.776550,348.045959 148.834320,352.999298 144.746674,357.780701 
	C136.897903,366.961578 128.647232,375.852722 121.465195,385.533203 
	C115.363983,393.756866 110.625038,402.981415 105.101387,411.647125 
	C101.943893,416.600739 98.422722,421.322571 95.065300,426.148743 
	C86.007111,417.235260 76.948929,408.321777 67.713585,399.079102 
z"/>
<path fill="#2DF32C" opacity="1.000000" stroke="none" 
	d="
M795.754395,792.878967 
	C791.190613,797.606812 786.626831,802.334595 781.135193,808.023621 
	C786.585693,812.643250 791.612915,816.904114 797.033630,821.498535 
	C786.855957,831.694946 777.651978,840.915955 767.979736,850.338745 
	C767.268372,850.665283 767.122253,850.862305 767.073120,851.131531 
	C767.073120,851.131531 767.066040,851.028931 766.740295,851.089111 
	C756.537476,858.049927 746.524292,864.766174 736.834412,871.920349 
	C731.024536,876.209839 725.719666,881.183533 719.968933,885.512512 
	C717.265625,882.979431 714.984741,880.484741 712.265930,878.632935 
	C676.800232,854.478333 638.857849,850.115173 598.896729,865.413696 
	C586.963562,869.982178 575.526489,875.942566 566.503174,885.729858 
	C557.395630,878.249390 548.850708,870.624878 539.765015,863.710876 
	C533.910400,859.255737 527.261963,855.843628 520.969299,851.964050 
	C520.969299,851.964050 520.988647,852.016968 520.934265,851.743225 
	C520.527222,851.335876 520.174500,851.202271 519.821899,851.068604 
	C510.515961,841.328918 501.209991,831.589233 490.788727,820.682373 
	C495.415100,816.987610 500.707458,812.760925 506.848022,807.856934 
	C500.865540,802.178467 496.299408,797.844360 491.691223,792.874023 
	C492.723999,790.979980 493.719177,789.642395 494.885254,788.475708 
	C538.061768,745.272034 581.250183,702.080261 624.461975,658.911804 
	C625.856873,657.518372 627.513550,656.386841 629.348999,655.372070 
	C634.017212,660.258240 638.384521,664.905701 644.003479,670.885010 
	C649.282654,664.955811 653.653992,660.046204 658.366394,655.285522 
	C659.715881,656.296997 660.787842,657.096069 661.723572,658.031372 
	C705.388306,701.674133 749.044434,745.325500 792.677917,788.999451 
	C793.836731,790.159424 794.734741,791.579956 795.754395,792.878967 
M623.952148,812.832520 
	C636.420532,812.854980 648.890442,812.774536 661.356445,812.959290 
	C665.375549,813.018860 665.131958,810.520935 664.868896,808.027588 
	C664.615234,805.623169 666.538147,801.910950 661.530212,801.936646 
	C649.560303,801.998047 637.589233,801.903137 625.620605,802.041870 
	C624.468750,802.055176 622.375183,803.230896 622.352783,803.920227 
	C622.259338,806.796387 622.790466,809.692932 623.952148,812.832520 
z"/>
<path fill="#7C4812" opacity="1.000000" stroke="none" 
	d="
M727.900208,891.780701 
	C764.249146,928.488892 772.556946,983.951721 748.646667,1030.283081 
	C725.732910,1074.683350 675.465210,1100.063965 625.733154,1092.343628 
	C563.478943,1082.679321 519.480835,1026.708130 525.351135,964.245667 
	C527.775757,938.446716 537.654358,915.681030 554.966309,896.255798 
	C556.069641,895.017761 557.058350,893.677490 558.672546,892.227783 
	C560.698608,893.067627 562.343445,893.871582 563.576294,895.091797 
	C573.951843,905.360657 584.232544,915.725281 594.599854,926.002563 
	C595.852966,927.244690 597.450867,928.139038 599.033691,929.485657 
	C608.106506,938.977844 617.001160,948.211914 625.990662,957.352783 
	C627.829285,959.222290 630.023315,960.742188 632.088379,962.730835 
	C635.165710,966.268127 638.100525,969.612488 641.328430,972.644836 
	C642.108826,973.377930 644.484497,973.717468 645.057922,973.152710 
	C648.534363,969.729248 651.701111,965.991394 655.311707,962.251221 
	C666.370117,951.364563 677.088196,940.585083 688.138062,929.749695 
	C700.043518,918.227722 711.597961,906.742310 723.215942,895.321472 
	C724.599976,893.960815 726.330383,892.952393 727.900208,891.780701 
z"/>
<path fill="#7B4812" opacity="1.000000" stroke="none" 
	d="
M796.021362,792.992981 
	C794.734741,791.579956 793.836731,790.159424 792.677917,788.999451 
	C749.044434,745.325500 705.388306,701.674133 661.723572,658.031372 
	C660.787842,657.096069 659.715881,656.296997 658.288269,655.020020 
	C653.253845,649.695984 648.638611,644.786438 643.435608,639.251587 
	C638.294312,644.926819 633.671204,650.030029 629.048157,655.133240 
	C627.513550,656.386841 625.856873,657.518372 624.461975,658.911804 
	C581.250183,702.080261 538.061768,745.272034 494.885254,788.475708 
	C493.719177,789.642395 492.723999,790.979980 491.489960,792.566895 
	C486.205231,797.526855 481.079651,802.157715 475.627625,807.083557 
	C464.099670,795.598450 452.607788,784.149231 441.183777,772.074280 
	C442.261658,770.969177 443.233276,770.192078 444.287537,770.056152 
	C456.302734,768.506775 466.832092,763.794922 476.121857,755.975281 
	C492.609375,742.096924 499.505280,723.954773 498.706482,703.039185 
	C498.314117,692.766235 494.551208,682.913391 488.942047,674.066223 
	C488.142517,672.805115 486.535278,672.056091 485.239441,670.701904 
	C481.794067,666.397400 479.058441,661.469849 474.884857,658.744080 
	C467.627777,654.004517 459.482819,650.624573 451.710083,646.674561 
	C463.013214,635.549316 474.298706,624.406006 485.638885,613.318665 
	C487.290955,611.703430 489.204010,610.355103 491.563721,609.111145 
	C495.349579,616.374756 497.915955,623.822205 502.009277,630.305603 
	C504.873169,634.841614 509.823883,638.060181 513.926941,642.224304 
	C515.193481,643.648987 516.254578,644.904907 517.576660,645.754822 
	C530.365967,653.976746 544.231384,658.231873 559.494873,655.965881 
	C565.994141,655.000977 572.838806,654.068970 578.669739,651.310730 
	C599.223938,641.587952 611.332947,624.975403 615.555054,602.657654 
	C615.777344,601.482666 615.165710,600.149902 615.113647,598.518799 
	C615.124634,592.752380 615.873474,587.129272 614.588501,582.017395 
	C612.717285,574.573975 609.381897,567.498657 606.670776,560.266418 
	C623.236450,556.821411 639.988708,556.482300 656.782837,557.548218 
	C664.390564,558.031006 671.960144,559.113159 679.904785,560.455933 
	C677.398438,568.875671 673.967407,576.617737 671.896057,584.707947 
	C670.766785,589.118469 671.943298,594.119324 671.942139,599.195801 
	C672.567017,603.866089 672.844421,608.350830 674.179626,612.494690 
	C678.913147,627.185242 687.497070,638.908203 700.947266,647.066406 
	C712.442566,654.039001 724.681396,656.561646 737.996521,656.185120 
	C750.474731,655.832336 761.150330,651.052368 771.372559,644.663574 
	C772.247314,644.116882 772.434753,642.470459 773.309937,641.272766 
	C777.587585,637.528748 782.427063,634.430481 785.188477,630.028625 
	C789.366089,623.368713 792.096619,615.801025 795.442078,608.619080 
	C810.276978,619.378052 822.932922,632.445007 834.870789,646.605408 
	C827.334412,650.825745 819.553650,653.812927 812.851624,658.382324 
	C808.359741,661.444641 805.398071,666.751526 801.423645,671.099365 
	C799.978149,672.288452 798.569946,673.262329 797.787231,674.601685 
	C787.519775,692.171082 785.179077,710.658691 792.509094,729.802185 
	C800.547180,750.795288 815.718262,763.903442 837.709839,769.058411 
	C840.626099,769.741943 843.382812,771.106628 846.213379,772.155823 
	C834.437012,783.541443 822.660767,794.927063 810.675110,806.515137 
	C806.153320,802.300964 801.220825,797.703979 796.021362,792.992981 
z"/>
<path fill="#02B801" opacity="1.000000" stroke="none" 
	d="
M1097.603638,314.064789 
	C1098.886353,314.702606 1100.407837,315.083954 1101.413452,316.019531 
	C1108.349731,322.471832 1115.507935,328.731049 1121.973022,335.634644 
	C1135.586304,350.171234 1149.415283,364.578064 1161.983154,379.994202 
	C1169.577271,389.309265 1174.979248,400.413025 1181.349365,410.723389 
	C1184.573486,415.941803 1187.760620,421.183167 1191.027588,426.769867 
	C1190.137329,428.251587 1189.259033,429.452667 1188.219849,430.492706 
	C1154.385864,464.353027 1120.540405,498.201935 1086.679565,532.035400 
	C1084.465576,534.247559 1082.115234,536.322998 1079.480225,538.575806 
	C1062.792725,509.552765 1043.197998,482.809113 1020.263672,457.965942 
	C1034.510742,449.442841 1048.946167,441.890076 1062.840454,433.446564 
	C1073.436646,427.007324 1083.346436,419.438843 1093.873535,412.282379 
	C1109.863892,399.577850 1125.526001,386.943573 1141.238037,374.371521 
	C1143.514038,372.550415 1143.135132,370.967499 1141.603882,368.897583 
	C1136.555298,362.073059 1131.943604,354.902405 1126.593872,348.328796 
	C1117.152100,336.727112 1107.289795,325.467590 1097.603638,314.064789 
z"/>
<path fill="#02B801" opacity="1.000000" stroke="none" 
	d="
M95.140625,426.460632 
	C98.422722,421.322571 101.943893,416.600739 105.101387,411.647125 
	C110.625038,402.981415 115.363983,393.756866 121.465195,385.533203 
	C128.647232,375.852722 136.897903,366.961578 144.746674,357.780701 
	C148.834320,352.999298 152.776550,348.045959 157.270218,343.668945 
	C167.570450,333.636078 178.168854,323.909363 188.896118,314.397888 
	C172.927750,331.760529 158.111313,349.906403 144.907867,369.382538 
	C142.906525,372.334686 142.763565,374.067688 145.675140,376.355377 
	C149.856171,379.640533 153.543686,383.555756 157.738205,386.821411 
	C169.270157,395.799683 180.956451,404.579712 192.762146,413.716919 
	C206.515884,422.890564 219.890366,432.110260 233.725418,440.577423 
	C244.732590,447.313904 256.302429,453.130951 267.622498,459.356140 
	C264.720886,461.781403 261.325958,463.809937 259.001923,466.699707 
	C248.209793,480.119110 237.395416,493.543762 227.231812,507.436798 
	C221.078995,515.847351 216.122772,525.130859 210.567352,533.983521 
	C209.701447,535.363403 208.506012,536.536560 207.185211,538.018677 
	C194.860107,526.295654 182.771286,514.400696 170.773911,502.414307 
	C145.562424,477.225891 120.399063,451.989319 95.140625,426.460632 
z"/>
<path fill="#F20201" opacity="1.000000" stroke="none" 
	d="
M451.351196,646.640564 
	C459.482819,650.624573 467.627777,654.004517 474.884857,658.744080 
	C479.058441,661.469849 481.794067,666.397400 484.996033,670.949951 
	C483.163086,673.426636 481.419678,675.214478 479.872986,677.158752 
	C457.934784,704.737549 443.759064,735.824829 437.738037,770.585938 
	C403.561249,771.862549 376.086975,746.020142 372.822235,712.711853 
	C372.565002,710.087402 372.850830,707.409729 372.799530,704.381592 
	C374.033142,691.559448 377.907806,680.074890 385.529572,670.004700 
	C394.127106,658.645325 405.295898,651.029907 418.998901,647.176086 
	C429.601044,644.194275 440.279816,644.100464 451.351196,646.640564 
z"/>
<path fill="#F20201" opacity="1.000000" stroke="none" 
	d="
M801.751709,671.053955 
	C805.398071,666.751526 808.359741,661.444641 812.851624,658.382324 
	C819.553650,653.812927 827.334412,650.825745 834.976685,646.922852 
	C839.906250,646.135620 844.515381,645.590942 849.712524,645.270142 
	C850.860046,645.313599 851.419556,645.133057 851.979065,644.952515 
	C866.239319,645.042480 878.976501,649.549255 890.121582,658.388916 
	C904.527405,669.814941 912.351929,684.824707 914.164795,703.591125 
	C914.604797,717.009460 911.982483,729.204651 905.173157,740.335205 
	C897.912170,752.204102 887.865479,760.828003 874.984009,766.115601 
	C867.021118,769.384155 858.731323,770.924316 849.652466,770.258728 
	C842.377380,732.563782 827.067749,699.405762 801.751709,671.053955 
z"/>
<path fill="#635F5F" opacity="1.000000" stroke="none" 
	d="
M801.423584,671.099304 
	C827.067749,699.405762 842.377380,732.563782 849.242432,770.199280 
	C848.495605,771.062256 847.690125,771.532043 846.549072,772.078857 
	C843.382812,771.106628 840.626099,769.741943 837.709839,769.058411 
	C815.718262,763.903442 800.547180,750.795288 792.509094,729.802185 
	C785.179077,710.658691 787.519775,692.171082 797.787231,674.601685 
	C798.569946,673.262329 799.978149,672.288452 801.423584,671.099304 
z"/>
<path fill="#635F5F" opacity="1.000000" stroke="none" 
	d="
M438.035645,770.767700 
	C443.759064,735.824829 457.934784,704.737549 479.872986,677.158752 
	C481.419678,675.214478 483.163086,673.426636 485.058472,671.318054 
	C486.535278,672.056091 488.142517,672.805115 488.942047,674.066223 
	C494.551208,682.913391 498.314117,692.766235 498.706482,703.039185 
	C499.505280,723.954773 492.609375,742.096924 476.121857,755.975281 
	C466.832092,763.794922 456.302734,768.506775 444.287537,770.056152 
	C443.233276,770.192078 442.261658,770.969177 441.035065,771.770996 
	C439.990082,771.712219 439.161682,771.330872 438.035645,770.767700 
z"/>
<path fill="#F2813B" opacity="1.000000" stroke="none" 
	d="
M728.091797,891.519165 
	C726.330383,892.952393 724.599976,893.960815 723.215942,895.321472 
	C711.597961,906.742310 700.043518,918.227722 688.169067,929.396606 
	C694.413635,919.735718 700.801575,910.256104 707.565125,901.052551 
	C711.458679,895.754211 715.960022,890.902466 720.187744,885.849731 
	C725.719666,881.183533 731.024536,876.209839 736.834412,871.920349 
	C746.524292,864.766174 756.537476,858.049927 766.774414,851.127563 
	C763.426941,855.063477 759.781006,859.080811 756.000183,862.967102 
	C746.794556,872.429688 737.526306,881.831360 728.091797,891.519165 
z"/>
<path fill="#F1813B" opacity="1.000000" stroke="none" 
	d="
M598.888977,929.194580 
	C597.450867,928.139038 595.852966,927.244690 594.599854,926.002563 
	C584.232544,915.725281 573.951843,905.360657 563.576294,895.091797 
	C562.343445,893.871582 560.698608,893.067627 558.948486,891.986328 
	C557.458252,890.178162 556.484497,888.237549 555.035156,886.765015 
	C543.785767,875.334534 532.444641,863.994263 521.050598,852.295105 
	C527.261963,855.843628 533.910400,859.255737 539.765015,863.710876 
	C548.850708,870.624878 557.395630,878.249390 566.555176,886.012634 
	C572.614685,893.129211 578.637085,899.546021 583.866821,906.554321 
	C589.275085,913.801880 593.913696,921.623901 598.888977,929.194580 
z"/>
<path fill="#F2813B" opacity="1.000000" stroke="none" 
	d="
M767.249146,851.109863 
	C767.122253,850.862305 767.268372,850.665283 767.694458,850.563965 
	C767.807007,850.826538 767.656250,850.993530 767.249146,851.109863 
z"/>
<path fill="#F1813B" opacity="1.000000" stroke="none" 
	d="
M519.945496,851.319946 
	C520.174500,851.202271 520.527222,851.335876 520.962097,851.747437 
	C520.719238,851.873962 520.394226,851.722595 519.945496,851.319946 
z"/>
<path fill="#F30200" opacity="1.000000" stroke="none" 
	d="
M1093.561523,412.372681 
	C1083.346436,419.438843 1073.436646,427.007324 1062.840454,433.446564 
	C1048.946167,441.890076 1034.510742,449.442841 1020.106445,457.665802 
	C1006.320984,463.811340 992.858521,469.973145 979.128601,475.466797 
	C947.971069,487.933624 915.817261,497.067932 882.828918,503.247467 
	C882.041748,503.394928 881.234619,503.436401 879.810547,503.598602 
	C879.597473,501.461517 879.338745,499.566437 879.228882,497.662750 
	C876.604675,452.205475 879.815552,407.164368 888.886902,362.541443 
	C889.251343,360.748627 889.468933,358.925964 889.924927,356.404907 
	C894.136169,340.580322 897.732239,325.330139 902.357117,310.398590 
	C906.181702,298.050842 911.221497,286.079498 916.062012,274.120239 
	C932.729370,280.901123 949.492493,286.607666 965.298462,294.284760 
	C1002.411743,312.310974 1034.558350,337.234924 1061.188721,368.752838 
	C1072.851562,382.556091 1082.822388,397.788971 1093.561523,412.372681 
z"/>
<path fill="#F30200" opacity="1.000000" stroke="none" 
	d="
M267.984924,459.399689 
	C256.302429,453.130951 244.732590,447.313904 233.725418,440.577423 
	C219.890366,432.110260 206.515884,422.890564 193.015457,413.423706 
	C202.506424,399.768524 211.241455,386.122131 221.473175,373.709442 
	C250.020462,339.077118 284.646820,311.863770 325.324524,292.784241 
	C339.893890,285.950623 355.183655,280.652954 370.405090,274.902008 
	C375.115875,287.456512 380.025208,299.620880 383.897797,312.106781 
	C388.508698,326.972992 392.229797,342.115204 396.336365,357.137817 
	C398.718109,371.570465 401.432312,385.957611 403.414764,400.444885 
	C408.032227,434.188721 409.005219,468.092682 406.918060,502.084106 
	C406.889069,502.556458 406.632111,503.014771 406.292542,504.062958 
	C404.614105,503.842041 402.873718,503.700836 401.168427,503.375671 
	C356.128265,494.788116 312.898254,480.681641 271.556091,460.825134 
	C270.507233,460.321381 269.417847,459.901978 267.984924,459.399689 
z"/>
<path fill="#F30200" opacity="1.000000" stroke="none" 
	d="
M725.670349,300.823730 
	C719.284180,312.488403 713.092957,324.264984 706.473816,335.795929 
	C689.256226,365.790588 668.970764,393.600342 646.109802,419.539520 
	C645.464417,420.271759 644.700623,420.899719 642.570618,422.933746 
	C641.465759,421.124084 640.659668,419.260986 639.389160,417.802307 
	C609.815430,383.847107 584.803223,346.840729 564.736206,306.511627 
	C563.846924,304.724487 562.861877,302.984955 561.623169,300.649689 
	C555.082520,285.368042 548.398804,270.827362 542.736572,255.899261 
	C538.151062,243.809921 534.794556,231.254501 531.262329,218.853607 
	C540.165039,216.002472 548.625000,212.951126 557.244019,210.447342 
	C599.384033,198.205902 642.243225,195.358185 685.705200,201.058548 
	C709.901123,204.232025 733.272461,210.692474 756.213989,219.325958 
	C751.297546,234.380066 746.731384,249.157181 741.314880,263.615784 
	C736.598633,276.205200 730.922363,288.434998 725.670349,300.823730 
z"/>
<path fill="#01B700" opacity="1.000000" stroke="none" 
	d="
M530.892883,218.905807 
	C534.794556,231.254501 538.151062,243.809921 542.736572,255.899261 
	C548.398804,270.827362 555.082520,285.368042 561.355591,300.445923 
	C546.634277,303.801178 531.767578,306.315552 517.153687,309.869232 
	C485.805725,317.492126 455.623077,328.615021 426.296661,341.991699 
	C416.329651,346.537872 406.751251,351.936127 396.665833,357.041443 
	C392.229797,342.115204 388.508698,326.972992 383.897797,312.106781 
	C380.025208,299.620880 375.115875,287.456512 370.392303,274.540833 
	C361.732513,255.695770 353.324860,237.469315 344.982910,219.212860 
	C343.786377,216.594254 342.136444,216.513641 339.760132,217.478073 
	C332.838776,220.287201 325.679169,222.572922 318.942261,225.759995 
	C303.950287,232.852341 289.158722,240.368332 274.285461,247.711670 
	C278.971466,244.180557 283.369873,240.159515 288.396515,237.208633 
	C304.581940,227.707016 320.690399,217.995300 337.393066,209.470749 
	C369.100128,193.288361 401.931732,179.611496 435.813080,168.618362 
	C468.333282,158.066864 501.560120,150.208908 535.202820,144.260757 
	C548.864380,141.845352 562.755188,140.721924 576.547852,139.062561 
	C577.499329,138.948090 578.503174,139.268448 579.424561,139.863464 
	C560.472168,144.940765 541.555603,149.452179 522.695435,154.188553 
	C515.823608,155.914261 515.883301,156.158936 517.235229,163.311996 
	C518.192871,168.378677 518.894226,173.511078 520.166626,178.497635 
	C523.611938,192.000229 527.300659,205.440704 530.892883,218.905807 
z"/>
<path fill="#01B700" opacity="1.000000" stroke="none" 
	d="
M726.129944,300.866211 
	C730.922363,288.434998 736.598633,276.205200 741.314880,263.615784 
	C746.731384,249.157181 751.297546,234.380066 756.443970,219.066254 
	C761.275085,198.793182 765.853882,179.185242 770.555237,159.606720 
	C771.361389,156.249496 769.361755,155.609238 766.959900,154.941513 
	C756.370972,151.997849 745.841858,148.822525 735.193237,146.115555 
	C726.176147,143.823273 717.024841,142.058624 707.932922,140.060486 
	C709.311340,139.774689 710.737549,139.100922 712.060791,139.263733 
	C724.035095,140.737045 736.048157,142.019318 747.938538,144.019409 
	C762.620056,146.488968 777.251282,149.331070 791.805237,152.470978 
	C827.893616,160.256699 862.879028,171.637634 897.070190,185.503983 
	C930.087585,198.894348 961.846741,214.789795 992.166382,233.518707 
	C998.033264,237.142715 1003.724182,241.051590 1009.079712,245.127075 
	C988.005188,235.963058 967.330200,226.538040 946.706970,217.001099 
	C943.414062,215.478317 941.654846,216.191422 940.163696,219.506500 
	C937.918762,224.497620 934.959412,229.169876 932.756104,234.176788 
	C926.948242,247.374405 921.384033,260.679230 915.722778,273.941406 
	C911.221497,286.079498 906.181702,298.050842 902.357117,310.398590 
	C897.732239,325.330139 894.136169,340.580322 889.869324,355.975281 
	C883.704651,353.322571 877.755127,350.407745 871.828064,347.448242 
	C842.945496,333.026672 812.921204,321.520264 781.789856,313.068939 
	C765.512085,308.649933 748.968872,305.204285 732.526001,301.403839 
	C730.611267,300.961273 728.571411,301.060577 726.129944,300.866211 
z"/>
<path fill="#F20200" opacity="1.000000" stroke="none" 
	d="
M795.462158,608.267395 
	C792.096619,615.801025 789.366089,623.368713 785.188477,630.028625 
	C782.427063,634.430481 777.587585,637.528748 772.998413,641.104431 
	C770.165283,639.193787 768.126831,637.227600 765.841309,635.610413 
	C746.230286,621.733643 725.062195,610.962585 701.780518,604.826721 
	C692.032654,602.257629 681.989075,600.810913 672.079834,598.853882 
	C671.943298,594.119324 670.766785,589.118469 671.896057,584.707947 
	C673.967407,576.617737 677.398438,568.875671 680.297607,560.625793 
	C691.230591,544.559875 705.887756,534.360840 724.859192,531.443237 
	C737.731384,529.463623 750.337280,531.420105 762.137817,537.363403 
	C775.555176,544.120972 785.462769,554.381226 791.574890,568.006226 
	C797.301392,580.771545 798.608704,594.178833 795.462158,608.267395 
z"/>
<path fill="#F20100" opacity="1.000000" stroke="none" 
	d="
M606.363525,560.127808 
	C609.381897,567.498657 612.717285,574.573975 614.588501,582.017395 
	C615.873474,587.129272 615.124634,592.752380 614.680664,598.539551 
	C597.755127,600.533997 582.125610,604.960205 566.946716,610.941101 
	C547.690002,618.528809 529.583801,628.193665 513.842590,641.867126 
	C509.823883,638.060181 504.873169,634.841614 502.009277,630.305603 
	C497.915955,623.822205 495.349579,616.374756 491.883850,609.007690 
	C491.074524,601.134949 489.225159,593.414612 490.243042,586.092957 
	C491.893829,574.218872 496.514984,563.100281 504.441406,553.694946 
	C514.495544,541.764954 527.257874,534.311462 542.546265,531.699524 
	C555.275635,529.524597 567.768127,531.109680 579.527832,536.737610 
	C590.517395,541.996948 599.539917,549.584534 606.363525,560.127808 
z"/>
<path fill="#7B4812" opacity="1.000000" stroke="none" 
	d="
M851.838135,644.748352 
	C851.419556,645.133057 850.860046,645.313599 850.165527,645.272766 
	C850.586060,644.882324 851.141663,644.713257 851.838135,644.748352 
z"/>
<path fill="#FDFD38" opacity="1.000000" stroke="none" 
	d="
M707.542114,140.126282 
	C717.024841,142.058624 726.176147,143.823273 735.193237,146.115555 
	C745.841858,148.822525 756.370972,151.997849 766.959900,154.941513 
	C769.361755,155.609238 771.361389,156.249496 770.555237,159.606720 
	C765.853882,179.185242 761.275085,198.793182 756.424866,218.650879 
	C733.272461,210.692474 709.901123,204.232025 685.705200,201.058548 
	C642.243225,195.358185 599.384033,198.205902 557.244019,210.447342 
	C548.625000,212.951126 540.165039,216.002472 531.262329,218.853607 
	C527.300659,205.440704 523.611938,192.000229 520.166626,178.497635 
	C518.894226,173.511078 518.192871,168.378677 517.235229,163.311996 
	C515.883301,156.158936 515.823608,155.914261 522.695435,154.188553 
	C541.555603,149.452179 560.472168,144.940765 579.713135,140.135345 
	C580.794312,139.926697 581.528809,139.922974 582.961853,139.860352 
	C585.108643,139.488647 586.556824,139.175873 588.005066,138.863098 
	C602.374695,137.711716 616.758545,135.472229 631.110779,135.658829 
	C653.790344,135.953674 676.448730,137.875565 699.843994,139.227448 
	C701.735779,139.424179 702.899658,139.502350 704.063477,139.580505 
	C705.092712,139.784378 706.122009,139.988251 707.542114,140.126282 
z"/>
<path fill="#FDFD38" opacity="1.000000" stroke="none" 
	d="
M916.062012,274.120239 
	C921.384033,260.679230 926.948242,247.374405 932.756104,234.176788 
	C934.959412,229.169876 937.918762,224.497620 940.163696,219.506500 
	C941.654846,216.191422 943.414062,215.478317 946.706970,217.001099 
	C967.330200,226.538040 988.005188,235.963058 1009.000916,245.465393 
	C1009.338806,245.505661 1009.485352,245.463272 1009.634399,245.736572 
	C1010.827942,246.532303 1011.872437,247.054733 1012.916870,247.577133 
	C1023.022644,254.294434 1033.254395,260.830963 1043.207397,267.767456 
	C1062.664062,281.327423 1080.370483,296.971741 1097.315674,313.944092 
	C1107.289795,325.467590 1117.152100,336.727112 1126.593872,348.328796 
	C1131.943604,354.902405 1136.555298,362.073059 1141.603882,368.897583 
	C1143.135132,370.967499 1143.514038,372.550415 1141.238037,374.371521 
	C1125.526001,386.943573 1109.863892,399.577850 1093.873535,412.282349 
	C1082.822388,397.788971 1072.851562,382.556091 1061.188721,368.752838 
	C1034.558350,337.234924 1002.411743,312.310974 965.298462,294.284760 
	C949.492493,286.607666 932.729370,280.901123 916.062012,274.120239 
z"/>
<path fill="#FDFD38" opacity="1.000000" stroke="none" 
	d="
M274.109741,247.971176 
	C289.158722,240.368332 303.950287,232.852341 318.942261,225.759995 
	C325.679169,222.572922 332.838776,220.287201 339.760132,217.478073 
	C342.136444,216.513641 343.786377,216.594254 344.982910,219.212860 
	C353.324860,237.469315 361.732513,255.695770 370.131836,274.293030 
	C355.183655,280.652954 339.893890,285.950623 325.324524,292.784241 
	C284.646820,311.863770 250.020462,339.077118 221.473175,373.709442 
	C211.241455,386.122131 202.506424,399.768524 192.834961,413.145020 
	C180.956451,404.579712 169.270157,395.799683 157.738205,386.821411 
	C153.543686,383.555756 149.856171,379.640533 145.675140,376.355377 
	C142.763565,374.067688 142.906525,372.334686 144.907867,369.382538 
	C158.111313,349.906403 172.927750,331.760529 189.264557,314.405273 
	C199.430832,304.930481 208.894196,295.020844 219.658676,286.818817 
	C237.305786,273.372498 255.798172,261.035522 274.109741,247.971176 
z"/>
<path fill="#01B700" opacity="1.000000" stroke="none" 
	d="
M587.758789,138.623901 
	C586.556824,139.175873 585.108643,139.488647 583.298828,139.700562 
	C584.462341,139.194702 585.987427,138.789719 587.758789,138.623901 
z"/>
<path fill="#01B700" opacity="1.000000" stroke="none" 
	d="
M703.956055,139.278351 
	C702.899658,139.502350 701.735779,139.424179 700.266235,139.158737 
	C701.256592,138.973022 702.552551,138.974594 703.956055,139.278351 
z"/>
<path fill="#01B700" opacity="1.000000" stroke="none" 
	d="
M1012.823730,247.224731 
	C1011.872437,247.054733 1010.827942,246.532303 1009.681152,245.676270 
	C1010.629395,245.852554 1011.679932,246.362442 1012.823730,247.224731 
z"/>
<path fill="#FDFE39" opacity="1.000000" stroke="none" 
	d="
M599.033691,929.485657 
	C593.913696,921.623901 589.275085,913.801880 583.866821,906.554321 
	C578.637085,899.546021 572.614685,893.129211 566.888550,886.169800 
	C575.526489,875.942566 586.963562,869.982178 598.896729,865.413696 
	C638.857849,850.115173 676.800232,854.478333 712.265930,878.632935 
	C714.984741,880.484741 717.265625,882.979431 719.968872,885.512451 
	C715.960022,890.902466 711.458679,895.754211 707.565125,901.052551 
	C700.801575,910.256104 694.413635,919.735718 687.837158,929.452637 
	C677.088196,940.585083 666.370117,951.364563 655.311157,961.765686 
	C654.662109,952.345276 656.566956,953.139832 646.745117,953.091431 
	C645.079773,953.083191 643.414368,953.090332 641.748962,953.090332 
	C632.253723,953.090332 632.253723,953.090271 632.053589,962.423218 
	C630.023315,960.742188 627.829285,959.222290 625.990662,957.352783 
	C617.001160,948.211914 608.106506,938.977844 599.033691,929.485657 
z"/>
<path fill="#F8FAF6" opacity="1.000000" stroke="none" 
	d="
M629.348999,655.372070 
	C633.671204,650.030029 638.294312,644.926819 643.435608,639.251587 
	C648.638611,644.786438 653.253845,649.695984 657.947205,654.871094 
	C653.653992,660.046204 649.282654,664.955811 644.003479,670.885010 
	C638.384521,664.905701 634.017212,660.258240 629.348999,655.372070 
z"/>
<path fill="#5B6B5B" opacity="1.000000" stroke="none" 
	d="
M623.522339,812.707275 
	C622.790466,809.692932 622.259338,806.796387 622.352783,803.920227 
	C622.375183,803.230896 624.468750,802.055176 625.620605,802.041870 
	C637.589233,801.903137 649.560303,801.998047 661.530212,801.936646 
	C666.538147,801.910950 664.615234,805.623169 664.868896,808.027588 
	C665.131958,810.520935 665.375549,813.018860 661.356445,812.959290 
	C648.890442,812.774536 636.420532,812.854980 623.522339,812.707275 
z"/>
<path fill="#68675C" opacity="1.000000" stroke="none" 
	d="
M632.088379,962.730835 
	C632.253723,953.090271 632.253723,953.090332 641.748962,953.090332 
	C643.414368,953.090332 645.079773,953.083191 646.745117,953.091431 
	C656.566956,953.139832 654.662109,952.345276 654.970825,961.872925 
	C651.701111,965.991394 648.534363,969.729248 645.057922,973.152710 
	C644.484497,973.717468 642.108826,973.377930 641.328430,972.644836 
	C638.100525,969.612488 635.165710,966.268127 632.088379,962.730835 
z"/>
<path fill="#625F5F" opacity="1.000000" stroke="none" 
	d="
M513.926941,642.224304 
	C529.583801,628.193665 547.690002,618.528809 566.946716,610.941101 
	C582.125610,604.960205 597.755127,600.533997 614.509399,598.911377 
	C615.165710,600.149902 615.777344,601.482666 615.555054,602.657654 
	C611.332947,624.975403 599.223938,641.587952 578.669739,651.310730 
	C572.838806,654.068970 565.994141,655.000977 559.494873,655.965881 
	C544.231384,658.231873 530.365967,653.976746 517.576660,645.754822 
	C516.254578,644.904907 515.193481,643.648987 513.926941,642.224304 
z"/>
<path fill="#625F5F" opacity="1.000000" stroke="none" 
	d="
M671.942200,599.195801 
	C681.989075,600.810913 692.032654,602.257629 701.780518,604.826721 
	C725.062195,610.962585 746.230286,621.733643 765.841309,635.610413 
	C768.126831,637.227600 770.165283,639.193787 772.629883,641.166565 
	C772.434753,642.470459 772.247314,644.116882 771.372559,644.663574 
	C761.150330,651.052368 750.474731,655.832336 737.996521,656.185120 
	C724.681396,656.561646 712.442566,654.039001 700.947266,647.066406 
	C687.497070,638.908203 678.913147,627.185242 674.179626,612.494690 
	C672.844421,608.350830 672.567017,603.866089 671.942200,599.195801 
z"/>
</svg>